# xmcd CD database file
#
# Track frame offsets:
#	150
#	17449
#	32369
#	46317
#	63193
#
# Disc length: 1014 seconds
#
# Revision: 0
# Processed by: cddbd v1.5.1PL0 Copyright (c) Steve Scherf et al.
# Submitted via: CDex 1.51
#
DISCID=2d03f405
DTITLE=Mike Rimmey - All About You
DYEAR=2005
DGENRE=Country
TTITLE0=Good News
TTITLE1=All About You
TTITLE2=Hope For Tomorrow
TTITLE3=Joy Comes In The Morning
TTITLE4=Daddy's Little Girl (Cassy's Song)
EXTD=YEAR: 2005
EXTT0=
EXTT1=
EXTT2=
EXTT3=
EXTT4=
PLAYORDER=
